Coordinates
version=1
nRows=12
nColumns=34
inDegrees=yes

Units are S.I. units (second, meters, Newtons, ...)
If the header above contains a line with 'inDegrees', this indicates whether rotational values are in degrees (yes) or radians (no).

endheader
time	pelvis_tilt	pelvis_list	pelvis_rotation	pelvis_tx	pelvis_ty	pelvis_tz	hip_flexion_r	hip_adduction_r	hip_rotation_r	knee_angle_r	ankle_angle_r	subtalar_angle_r	mtp_angle_r	hip_flexion_l	hip_adduction_l	hip_rotation_l	knee_angle_l	ankle_angle_l	subtalar_angle_l	mtp_angle_l	lumbar_extension	lumbar_bending	lumbar_rotation	arm_flex_r	arm_add_r	arm_rot_r	elbow_flex_r	pro_sup_r	arm_flex_l	arm_add_l	arm_rot_l	elbow_flex_l	pro_sup_l
      7.43333330	     -0.67862978	      1.23934648	      6.83434522	      0.14466956	      0.82972498	     -0.00564140	     39.97990917	      7.69835050	     -4.96473896	     74.12004220	    -46.05988542	    -14.42631338	      0.00000000	     42.23341562	     -2.18271733	      0.76915748	      7.25999070	    -13.49935887	     -5.85774731	      0.00000000	    -33.54464871	      9.77503341	     -0.37841922	     46.59697483	      4.88732906	     54.96833883	    122.82470056	     91.93746668	     60.38577648	      8.76562368	     71.77751390	    124.58816546	     67.34353245
      7.45000000	     -0.75269648	      1.11724399	      6.77824554	      0.14321725	      0.82786398	     -0.00550824	     40.28696500	      7.81430503	     -5.10553286	     74.42470399	    -46.07810956	    -14.43160070	      0.00000000	     41.97480176	     -2.29555388	      0.70992489	      7.25136756	    -13.42065458	     -5.91092655	      0.00000000	    -33.66646440	      9.83294288	     -0.45376182	     46.56282521	      4.89161211	     54.96465374	    122.85542976	     91.94140497	     60.38111504	      8.78452167	     71.80361438	    124.59407747	     67.35590282
      7.46666670	     -1.10122060	      0.88657912	      6.69390699	      0.14386452	      0.82823381	     -0.00562876	     40.62085650	      8.04672908	     -5.09131516	     74.23082583	    -46.25530784	    -14.47018296	      0.00000000	     42.06433080	     -2.58177557	      0.59584233	      7.43115691	    -12.83125696	     -6.05726416	      0.00000000	    -33.49533155	     10.07554313	     -0.55877217	     46.48375632	      4.92736015	     53.25819406	    122.91781963	     91.93546863	     60.41956982	      8.81553856	     72.06812404	    125.28555325	     67.68692462
      7.48333330	     -1.48793630	      0.83703895	      6.71970690	      0.14341162	      0.82617396	     -0.00566079	     40.79917565	      7.94910667	     -4.95215109	     73.70535359	    -38.39556334	    -19.99639111	      0.00000000	     42.04597540	     -2.67379535	      0.05415091	      7.32660552	    -12.68263519	     -6.63840290	      0.00000000	    -33.17293776	     10.09366043	     -0.60688330	     46.21218070	      4.93760042	     52.69691289	    123.14086661	     92.02354585	     60.07936873	      8.93367956	     72.36232563	    125.57969416	     68.00293198
      7.50000000	     -1.87181913	      1.01273503	      6.75781110	      0.14351671	      0.82776288	     -0.00538373	     40.49484726	      7.70962537	     -4.66730627	     73.15682688	    -25.62805260	    -21.75520959	      0.00000000	     41.87228906	     -2.52265445	     -0.25243699	      7.08313342	    -12.81136962	     -7.42775123	      0.00000000	    -32.78834187	      9.69025290	     -0.85145212	     45.48328703	      5.29900792	     53.80527543	    124.12550404	     92.75287304	     60.01265245	      9.02361295	     72.93025008	    125.30434374	     69.15019414
      7.51666670	     -2.24788225	      1.00779263	      6.75284748	      0.14311763	      0.82605843	     -0.00554866	     40.32261550	      7.56247012	     -4.73981836	     72.67700352	    -16.58085879	    -22.39413789	      0.00000000	     41.95538668	     -2.59790579	     -0.83956342	      6.87064255	    -12.44919985	     -7.27588856	      0.00000000	    -32.29089181	      9.56565273	     -0.86994211	     44.89414354	      5.31343462	     54.35924256	    124.63285767	     93.38166104	     59.91798599	      9.30419989	     73.00474510	    125.11149334	     70.07813787
      7.53333330	     -2.59062967	      1.02952103	      6.54261914	      0.14217397	      0.82654755	     -0.00517790	     40.37965775	      7.60948451	     -4.64789135	     72.42489090	    -12.26589796	    -22.06450080	      0.00000000	     42.07920293	     -2.66485458	     -0.88640470	      6.54140794	    -12.47542734	     -7.57518593	      0.00000000	    -31.90446568	      9.31967213	     -0.87615154	     44.93718011	      5.15083839	     52.49399051	    124.12657945	     93.59731014	     59.74404599	      9.36673185	     72.91480200	    125.25895347	     70.66935269
      7.55000000	     -2.64084876	      0.88077428	      6.37379845	      0.14109989	      0.82828922	     -0.00587976	     40.50726364	      7.64025450	     -4.82167821	     72.41553909	    -12.17461809	    -22.04075599	      0.00000000	     42.04493891	     -2.84421630	     -1.02945446	      6.25700158	    -12.42484599	     -7.64649384	      0.00000000	    -31.83672279	      9.34995528	     -0.90262024	     45.20274367	      5.02238284	     52.20710644	    124.05985013	     93.60202414	     59.69254152	      9.32327568	     72.89312244	    125.30248323	     70.70067125
      7.56666670	     -2.66092268	      0.82727771	      6.20536417	      0.14006246	      0.83200221	     -0.00502075	     40.63387579	      7.67680839	     -4.86542368	     72.30570469	    -14.38147019	    -20.28824118	      0.00000000	     41.95473631	     -2.94613674	     -1.09462948	      6.03508010	    -12.76493761	     -7.48682316	      0.00000000	    -31.76364408	      9.44406309	     -0.84222392	     45.21965156	      5.14728811	     51.55856808	    123.71430249	     93.63124087	     59.43174384	      9.16233901	     72.83040312	    125.38686322	     70.80215342
      7.58333330	     -2.62953754	      0.82239239	      6.04755933	      0.13908916	      0.83228111	     -0.00469590	     40.65690741	      7.67500013	     -4.89736138	     71.95076540	    -15.85647870	    -19.42975227	      0.00000000	     42.10407309	     -3.03148354	     -1.25152141	      6.28655724	    -12.67804937	     -7.59118957	      0.00000000	    -31.71326365	      9.42674956	     -0.90435316	     44.89602928	      5.41853588	     51.27098966	    123.40455115	     93.69862544	     59.44385610	      9.04878212	     72.59475078	    125.51975350	     70.92235800
      7.60000000	     -2.67766250	      0.76339117	      6.06599420	      0.13830989	      0.83357326	     -0.00497463	     40.69099508	      7.58477780	     -4.94486699	     71.66065322	    -19.66628156	    -17.51132533	      0.00000000	     42.29355829	     -3.06633496	     -1.09474642	      6.45161218	    -12.77514146	     -7.29231294	      0.00000000	    -31.45425201	      9.46393938	     -1.06500237	     44.74988984	      5.67144330	     51.52365237	    123.38068872	     93.89349720	     59.20872688	      8.83001086	     72.33997416	    125.55403631	     71.15522173
      7.61666670	     -2.85199841	      0.47150949	      5.93452817	      0.13644477	      0.83706621	     -0.00471059	     40.96903228	      7.81441238	     -4.96362657	     70.82323121	    -24.03839947	    -17.10820238	      0.00000000	     42.76499547	     -3.38567454	     -0.99879766	      6.81232800	    -12.64200131	     -6.98883338	      0.00000000	    -31.29491456	      9.81055304	     -1.00064756	     44.86329495	      5.84823881	     53.11373024	    123.40025587	     94.37423767	     58.99621433	      8.77932863	     72.02177370	    125.91809740	     71.74786036
